<?xml version="1.0" encoding="UTF-8"?>
<mxfile host="app.diagrams.net" agent="Mozilla/5.0 (Macintosh; Intel Mac OS X 10_15_7) AppleWebKit/537.36 (KHTML, like Gecko) Chrome/140.0.0.0 Safari/537.36" version="28.2.5">
  <diagram name="Page-1" id="GirV1gXFFNaaFIZJWYGr">
    <mxGraphModel dx="2159" dy="1209" grid="1" gridSize="10" guides="1" tooltips="1" connect="1" arrows="1" fold="1" page="1" pageScale="1" pageWidth="850" pageHeight="1100" math="0" shadow="0">
      <root>
        <mxCell id="0" />
        <mxCell id="1" parent="0" />
        <mxCell id="2" value="Start" style="ellipse;whiteSpace=wrap;html=1;" parent="1" vertex="1">
          <mxGeometry x="300" y="40" width="120" height="60" as="geometry" />
        </mxCell>
        <mxCell id="3" value="ประกาศตัวแปร Name และ Age" style="rounded=0;whiteSpace=wrap;html=1;" parent="1" vertex="1">
          <mxGeometry x="280" y="130" width="160" height="60" as="geometry" />
        </mxCell>
        <mxCell id="4" value="แสดงข้อความ &quot;Enter your name:&quot;" style="parallelogram;whiteSpace=wrap;html=1;" parent="1" vertex="1">
          <mxGeometry x="260" y="220" width="200" height="60" as="geometry" />
        </mxCell>
        <mxCell id="5" value="รับค่าชื่อจากผู้ใช้ (Name)" style="parallelogram;whiteSpace=wrap;html=1;" parent="1" vertex="1">
          <mxGeometry x="260" y="310" width="200" height="60" as="geometry" />
        </mxCell>
        <mxCell id="6" value="แสดงข้อความ &quot;Enter your age:&quot;" style="parallelogram;whiteSpace=wrap;html=1;" parent="1" vertex="1">
          <mxGeometry x="260" y="400" width="200" height="60" as="geometry" />
        </mxCell>
        <mxCell id="7" value="รับค่าอายุจากผู้ใช้ (Age)" style="parallelogram;whiteSpace=wrap;html=1;" parent="1" vertex="1">
          <mxGeometry x="260" y="490" width="200" height="60" as="geometry" />
        </mxCell>
        <mxCell id="8" value="แสดงเส้นแบ่ง &quot;- - - - - -&quot;" style="parallelogram;whiteSpace=wrap;html=1;" parent="1" vertex="1">
          <mxGeometry x="260" y="580" width="200" height="60" as="geometry" />
        </mxCell>
        <mxCell id="9" value="แสดงข้อความ &quot;Hello [Name]&quot;" style="parallelogram;whiteSpace=wrap;html=1;" parent="1" vertex="1">
          <mxGeometry x="260" y="670" width="200" height="60" as="geometry" />
        </mxCell>
        <mxCell id="10" value="แสดงข้อความ &quot;Age = [Age]&quot;" style="parallelogram;whiteSpace=wrap;html=1;" parent="1" vertex="1">
          <mxGeometry x="260" y="760" width="200" height="60" as="geometry" />
        </mxCell>
        <mxCell id="11" value="Stop" style="ellipse;whiteSpace=wrap;html=1;" parent="1" vertex="1">
          <mxGeometry x="300" y="860" width="120" height="60" as="geometry" />
        </mxCell>
        <mxCell id="12" style="endArrow=classic;html=1;" parent="1" source="2" target="3" edge="1">
          <mxGeometry relative="1" as="geometry" />
        </mxCell>
        <mxCell id="13" style="endArrow=classic;html=1;" parent="1" source="3" target="4" edge="1">
          <mxGeometry relative="1" as="geometry" />
        </mxCell>
        <mxCell id="14" style="endArrow=classic;html=1;" parent="1" source="4" target="5" edge="1">
          <mxGeometry relative="1" as="geometry" />
        </mxCell>
        <mxCell id="15" style="endArrow=classic;html=1;" parent="1" source="5" target="6" edge="1">
          <mxGeometry relative="1" as="geometry" />
        </mxCell>
        <mxCell id="16" style="endArrow=classic;html=1;" parent="1" source="6" target="7" edge="1">
          <mxGeometry relative="1" as="geometry" />
        </mxCell>
        <mxCell id="17" style="endArrow=classic;html=1;" parent="1" source="7" target="8" edge="1">
          <mxGeometry relative="1" as="geometry" />
        </mxCell>
        <mxCell id="18" style="endArrow=classic;html=1;" parent="1" source="8" target="9" edge="1">
          <mxGeometry relative="1" as="geometry" />
        </mxCell>
        <mxCell id="19" style="endArrow=classic;html=1;" parent="1" source="9" target="10" edge="1">
          <mxGeometry relative="1" as="geometry" />
        </mxCell>
        <mxCell id="20" style="endArrow=classic;html=1;" parent="1" source="10" target="11" edge="1">
          <mxGeometry relative="1" as="geometry" />
        </mxCell>
      </root>
    </mxGraphModel>
  </diagram>
</mxfile>
